# xmcd
#
# Track frame offsets:
#	150
#	13667
#	29698
#	43891
#	59146
#	75490
#	99154
#	116662
#	130655
#	145197
#	170136
#	182691
#	192250
#
# Disc length: 2755 seconds
#
# Revision: 0
# Processed by: cddbd v1.5.2PL0 Copyright (c) Steve Scherf et al.
# Submitted via: audiograbber 1.83.01
#
DISCID=b60ac10d
DTITLE=Tyler Childers - Bottles and Bibles
DYEAR=2011
DGENRE=Country
TTITLE0=Hard Times
TTITLE1=Junction City Queen
TTITLE2=We've Had Our Fun
TTITLE3=Coal
TTITLE4=Good Thing Windin' Down
TTITLE5=Play Me A Hank Song
TTITLE6=If Whiskey Could Talk
TTITLE7=The Harvest
TTITLE8=Detroit
TTITLE9=Bottles And Bibles
TTITLE10=The Gospel (According to Fishermen)
TTITLE11=Silence
TTITLE12=Long Hard Road
EXTD=
EXTT0=
EXTT1=
EXTT2=
EXTT3=
EXTT4=
EXTT5=
EXTT6=
EXTT7=
EXTT8=
EXTT9=
EXTT10=
EXTT11=
EXTT12=
PLAYORDER=
